<svg width="0" height="0" class="hidden">
  <symbol xmlns="http://www.w3.org/2000/svg" fill="currentColor" viewBox="0 0 24 24" id="arrow-right-up">
    <path d="M5.63589 19.7784L4.22169 18.3644L15.657 6.92908L10.0712 6.92908V4.92908L19.0712 4.92908L19.0712 13.9291H17.0712L17.0712 8.34326L5.63589 19.7784Z"></path>
  </symbol>
  <symbol xmlns="http://www.w3.org/2000/svg" fill="currentColor" viewBox="0 0 24 24" id="arrow-right">
    <path d="M16.1716 10.9999L10.8076 5.63589L12.2218 4.22168L20 11.9999L12.2218 19.778L10.8076 18.3638L16.1716 12.9999H4V10.9999H16.1716Z"></path>
  </symbol>
  <symbol xmlns="http://www.w3.org/2000/svg" fill="currentColor" viewBox="0 0 24 24" id="arrow-left">
    <path d="M7.82843 10.9999H20V12.9999H7.82843L13.1924 18.3638L11.7782 19.778L4 11.9999L11.7782 4.22168L13.1924 5.63589L7.82843 10.9999Z"></path>
  </symbol>
  <symbol xmlns="http://www.w3.org/2000/svg" fill="currentColor" viewBox="0 0 24 24" id="plus-icon">
    <path d="M13.0001 10.9999L22.0002 10.9997L22.0002 12.9997L13.0001 12.9999L13.0001 21.9998L11.0001 21.9998L11.0001 12.9999L2.00004 13.0001L2 11.0001L11.0001 10.9999L11 2.00025L13 2.00024L13.0001 10.9999Z"></path>
  </symbol>
  <symbol fill="none" xmlns="http://www.w3.org/2000/svg" viewBox="0 0 52 52" id="video-icon">
    <circle cx="26" cy="26" r="26" fill="white"></circle>
    <path id="video-btn__triangle" d="M38 26L20 15.6077V36.3923L38 26Z" fill="currentColor"></path>
  </symbol>
    <symbol fill="currentColor" xmlns="http://www.w3.org/2000/svg" viewBox="0 0 359.27 364.96" id="review-icon">
    <path d="M-205.89,500.29H-322.06a27.84,27.84,0,0,0-4.09.1c-3.12.47-4.9,2.37-5,5.52a5.28,5.28,0,0,0,4.59,5.85,24.16,24.16,0,0,0,4.82.28c41.77,0,83.53,0,125.3.1a14.64,14.64,0,0,1,7.21,2.12c18.28,11.21,37.93,14.81,59,11.14.48-.08,1-.09,1.69-.15v72.59h-247V277.65h195.05v3.81q0,17.16,0,34.32c0,9,4.73,13.72,13.85,13.74q17,0,33.93,0h4.16v34.8c-7.86-.18-15.6-1.15-23.15-.32-8.16.89-16.15,3.48-24.21,5.29-2.27.51-4.55,1.3-6.83,1.31q-69.74.11-139.46.06c-6.19,0-8.93,1.81-9,5.92s2.62,6,8.78,6h123.66c-3.93,4.35-7.83,8-10.92,12.25a144.57,144.57,0,0,0-9.9,16.13c-1.19,2.19-2.3,2.95-4.75,2.95q-49-.13-98.07-.06a22,22,0,0,0-3.35.05c-3.2.47-5.25,2.24-5.42,5.6s1.73,5.35,4.85,6.09a17.94,17.94,0,0,0,4.09.18h96.35c-.48,10.47-.94,20.59-1.43,31.28h-94.75a33.13,33.13,0,0,0-3.73.06c-3.1.34-5,2.09-5.36,5.21-.33,3.31,1.32,5.51,4.54,6.28a19.3,19.3,0,0,0,4.44.31q47.35,0,94.71-.05c2.79,0,4.14.68,5,3.47C-219.14,482.53-213.51,491.42-205.89,500.29ZM-252,543.45h-70a22.81,22.81,0,0,0-4.46.19,5.32,5.32,0,0,0-4.63,5.82,5.3,5.3,0,0,0,4.6,5.48,20.59,20.59,0,0,0,4.09.18h140.84a31.16,31.16,0,0,0,3.35-.09,5.82,5.82,0,0,0,5.28-5.73,5.78,5.78,0,0,0-5.25-5.74,37.29,37.29,0,0,0-4.1-.11Zm-21-204.07H-222c4.88,0,7.49-2,7.58-5.71s-2.57-6.13-7.28-6.13q-51.06-.06-102.12,0c-4.81,0-7.4,2.26-7.37,6s2.55,5.81,7.44,5.82Z" transform="translate(375.56 -232.89)"></path>
    <path d="M-336.92,265.44V232.89h195.2v3.82q0,17.16,0,34.31c0,9,4.75,13.73,13.85,13.74q17,0,33.93,0h4.17V385c-1.12-.82-1.83-1.43-2.61-1.92-7-4.39-13.95-9-21.17-13-2.16-1.22-3-2.2-3-4.67.11-14.92-.06-29.84.11-44.75a17.44,17.44,0,0,0-5.54-13.6q-18.4-18-36.39-36.38a16.89,16.89,0,0,0-12.95-5.29q-80.35.12-160.71.05Z" transform="translate(375.56 -232.89)"></path>
    <path d="M-87.49,484.48q10.32,11,20.36,21.77c6.28-3.79,7.65-3.6,12.7,1.3q17.24,16.77,34.5,33.52c4.82,4.68,4.84,7.43.15,12.26-3.73,3.83-7.43,7.69-11.19,11.49-3.94,4-7.21,4-11.22.16Q-60,547.75-77.77,530.43c-4.37-4.26-4.61-6.2-2.1-10.32l-20.06-21.73c-32.62,26.45-74.83,19.14-97.72-6.74-23.48-26.55-23.61-66.39-.28-92.63A69.92,69.92,0,0,1-106,387.48C-78.18,406.33-63.74,448.31-87.49,484.48Zm-4.61-39.22a53.47,53.47,0,0,0-53.11-53.6A53.69,53.69,0,0,0-199,445.05a53.52,53.52,0,0,0,53.57,53.52A53.33,53.33,0,0,0-92.1,445.26Z" transform="translate(375.56 -232.89)"></path>
    <path d="M-100.45,513.62l6,6.9c.4.46,1,.93,1.08,1.45,1.07,10.3,6.42,20.12,2.9,31.4H-116.5c0-8.48.39-16.66-.14-24.79-.34-5.25,1-8.2,6.24-9.76C-107.26,517.88-104.47,515.78-100.45,513.62Z" transform="translate(375.56 -232.89)"></path>
    <path d="M-129.46,233.52l39.24,39h-39.24Z" transform="translate(375.56 -232.89)"></path>
    <path d="M-168.44,317.35V279.23l38.08,38.12Z" transform="translate(375.56 -232.89)"></path>
  </symbol>
  <symbol fill="currentColor" xmlns="http://www.w3.org/2000/svg" viewBox="0 0 350.41 337.62" id="legal-actions">
    <path d="M-379.74,589.59a1.29,1.29,0,0,0,.34,0c3.32-.64,7.3-.38,9.74-2.2s3.12-5.63,4.82-9.06a19.62,19.62,0,0,1,1.74,3.53c1.31,5.15,4.62,7.38,9.83,7.17a18.69,18.69,0,0,1,3.7.8c-6.95,4.56-9.34,10.28-5.78,17.43-.74.25-1,.42-1.09.35-5.78-4.51-11.52-5.07-17.55,1.29.25-2.39.11-3.7.54-4.78,2.76-6.87-1.7-10.37-6.29-13.85Z" transform="translate(379.74 -271.29)"></path>
    <path d="M-243.27,558.48c1.86-14.81,3.71-29.49,5.56-44.16q3.26-25.76,6.53-51.5c.78-6.21,1.4-12.45,2.41-18.62a8.72,8.72,0,0,0-2.4-8.25c-15.12-16.35-23.45-36.09-27.92-57.63-.17-.82,1-2,1.71-2.9.22-.3.85-.27,1.26-.45,4-1.73,7.22-1.39,11.11,1.47,10.64,7.84,22,3.68,25.73-9,3.9,3,8.08,5,13.17,4.13A14.47,14.47,0,0,0-195,363.38a4,4,0,0,1,2.51-2c7-.82,13.93-1.44,21.21-2.15l4.06,10.54c-5.17,5-10.65,9.61-15.39,14.92a57.61,57.61,0,0,0-12.69,25c-.44,1.78-.48,3.51,1.51,3.74.83.1,2.46-1.54,2.75-2.64,4.22-16.27,13.65-28.59,27.92-37.29,2.28-1.39,2.3-2.6,1.17-5a84.2,84.2,0,0,1-4.81-12.92c-.77-2.68-1.78-3.21-4.35-2.36-11.11,3.71-22.44,4.94-34,2.17a20.55,20.55,0,0,1-11.56-6.83c-4.72-5.81-2.77-12.42,4.43-14.4q18.73-5.14,37.56-10c3.91-1,7.72-.71,10.8,2.42,7.5,7.63,15.06,15.2,22.5,22.89a122.9,122.9,0,0,1,8.13,9.24c5.78,7.32,6.92,15.26,3.2,24a234.17,234.17,0,0,1-24.06,42.39,13.84,13.84,0,0,0-2.69,8.5q.16,60.19.11,120.41v4.36Z" transform="translate(379.74 -271.29)"></path>
    <path d="M-289,507h6.89c3.88,27.48-8.51,50.28-34.49,57-24.85,6.49-49.67-8.92-55.85-33.94a28.42,28.42,0,0,1-1-6.05c-.13-5.56,0-11.13,0-17h8c3.05-10.63,6-21,9-31.34q11.19-39.36,22.36-78.71c.54-1.88.56-3.21-.9-4.88-3.32-3.77-2.8-8.88.87-12.61a8.78,8.78,0,0,1,11.8-1c3.78,2.76,5.22,8.18,2.71,12.18-1.41,2.25-1.21,4.09-.56,6.36q15.18,53.46,30.26,107C-289.78,504.86-289.46,505.71-289,507Zm-5.49-.94c-.21-1.1-.3-1.9-.52-2.66q-14.83-52.49-29.75-104.95a4.22,4.22,0,0,0-2.21-2.63c-2.17-.65-2.42,1.24-2.87,2.8q-13.31,47.08-26.66,94.16c-1.23,4.33-2.44,8.67-3.74,13.28Z" transform="translate(379.74 -271.29)"></path>
    <path d="M-30,430.05c1.79,19.38-1.58,36.55-17.67,48.73-14.7,11.13-31,13-47.63,5.18s-25.48-21.48-26.41-40c-.23-4.52,0-9.06,0-13.87h7.83c.42-1.11.84-2,1.11-3q15-52.79,30.05-105.56c.58-2,.71-3.62-.87-5.55-3-3.72-2.32-9.06,1.12-12.4a8.93,8.93,0,0,1,11.58-.78,10.35,10.35,0,0,1,3.27,12.23,8.13,8.13,0,0,0-.61,5q15,53.52,30.11,107c.61,2.16,1.43,3.42,3.92,3A28.27,28.27,0,0,1-30,430.05Zm-12.4-.93L-73.22,319.9l-4.42.4-30.81,108.82Z" transform="translate(379.74 -271.29)"></path>
    <path d="M-279.09,601.23c0-3.34-.05-6.28,0-9.22.08-4.63,2.52-7.17,7.11-7.47.91-.06,1.82,0,2.73,0h134.46a27.76,27.76,0,0,1,3.76.16,6.36,6.36,0,0,1,5.85,6.45c.12,3.18,0,6.37,0,10.11h58.85a6.88,6.88,0,0,1,2.7.13c.8.37,1.82,1.28,1.86,2a3,3,0,0,1-1.55,2.27,8.66,8.66,0,0,1-3.36.27h-271c-.68,0-1.5.23-2-.06a24.56,24.56,0,0,1-3-2.25c1-.79,2.07-2.24,3.13-2.26,9.46-.18,18.93-.11,28.4-.11Z" transform="translate(379.74 -271.29)"></path>
    <path d="M-256.33,579.75c0-3.51-.23-6.92.06-10.28.31-3.54,2.68-5.64,6.29-6.12a29.25,29.25,0,0,1,3.75-.15h88.51c7.88,0,9.94,2,9.94,9.87,0,2.15,0,4.29,0,6.68Z" transform="translate(379.74 -271.29)"></path>
    <path d="M-262.13,344.54c.26-8.11,3.28-13,8.63-16.65a7.21,7.21,0,0,1,10.81,4.6c1.22,5.13,4.37,9.88,7.14,14.53s6.19,8.73,9.06,13.24,2.5,8.75-.63,12.27-7.54,4.47-12.15,2.54a19.65,19.65,0,0,1-4.71-2.7,54,54,0,0,1-15.83-19.85A46.26,46.26,0,0,1-262.13,344.54Z" transform="translate(379.74 -271.29)"></path>
    <path d="M-49.3,585.93c-8.59-8.28-16.57-15.6-19.31-26.69-1-4.14.36-7.64,3.52-10.42,2.89-2.55,6.25-4.15,10-2.32,2.22,1.08,4,3.09,6,4.7,5.29-5.82,9.11-6.7,15-3.06,4,2.48,5.73,6.29,4.27,10.82a30.11,30.11,0,0,1-4.36,9.14C-38.83,574.1-44,579.71-49.3,585.93Z" transform="translate(379.74 -271.29)"></path>
    <path d="M-328.47,332.29c-5.16-6.37-10.11-12.29-14.8-18.4a20.63,20.63,0,0,1-2.85-6.16c-2.07-6.48.14-11.7,6-14.59,4.62-2.28,8.77-.65,12.88,5.17,2.2-4.72,5.93-6.53,10.91-5.63,4.47.8,8.63,4.38,8.69,8.45a21.18,21.18,0,0,1-2.24,9.41C-314.08,318.93-320.77,325.32-328.47,332.29Z" transform="translate(379.74 -271.29)"></path>
    <path d="M-144,336.82c-4.38-3.68-8.71-7.22-12.92-10.89a26.67,26.67,0,0,0-13.26-6.64,3.78,3.78,0,0,1-2.52-2.28c-1.58-6.44,1.32-14.27,6.31-17.66,5.45-3.71,14.14-3.6,19.72.18,4.79,3.23,6.49,8.13,6,13.38C-141.4,321.34-143,329.71-144,336.82Z" transform="translate(379.74 -271.29)"></path>
    <path d="M-210.87,328c-3.81,2.77-7.44,4.65-10,7.48-4.69,5.14-3.27,12.8,2.79,18.1,4.84,4.23,10.86,5.53,16.91,6.73l1.62.33c-3.05,7.28-11.2,9.05-16.27,3.46-5.52-6.07-10.91-12.28-16-18.72-4.36-5.5-7.75-11.55-7-19.05,1.11-11.57,12.38-14.64,19.81-13.15a5.72,5.72,0,0,1,3.43,2.91C-213.73,320.23-212.24,324.52-210.87,328Z" transform="translate(379.74 -271.29)"></path>
    <path d="M-177.24,320.37l-28.32,7.56c-7.11-10.12-3.56-24.91,6.83-28.45a17.79,17.79,0,0,1,16.6,2.37c3.3,2.34,5.33,5.49,4.93,9.88C-177.44,314.42-177.24,317.16-177.24,320.37Z" transform="translate(379.74 -271.29)"></path>
    <path d="M-313.33,387.54l-3.2-10.48L-301,372.4c12.5-3.76,25-7.5,37.49-11.33,2-.61,3.23-.54,4.46,1.45a77.63,77.63,0,0,0,5.54,7.08Z" transform="translate(379.74 -271.29)"></path>
    <path d="M-139.88,335.51c.67-4.11,1.14-7.46,1.82-10.76a2.84,2.84,0,0,1,1.69-1.73c15.27-4.65,30.57-9.21,45.74-13.76,1.06,3.53,2.06,6.84,3.17,10.55Z" transform="translate(379.74 -271.29)"></path>
    <path d="M-44.23,271.29c2.08,7.67,6.09,12.13,14.52,10.79v.84a56.51,56.51,0,0,1-4.48,4.79,5.73,5.73,0,0,0-2,6.27,36,36,0,0,1,.84,7.12c-5.92-5.27-11.69-5.47-17.91.07,2.32-7.6,1.68-13.86-5.92-18.36C-50.65,283.31-46.26,279.05-44.23,271.29Z" transform="translate(379.74 -271.29)"></path>
  </symbol>
    <symbol fill="currentColor" xmlns="http://www.w3.org/2000/svg" viewBox="0 0 43 43" id="consultation-icon">
    <path d="M41.6562 28.2188H38.9688V21.5C38.9687 16.867 37.1283 12.4238 33.8523 9.14773C30.5762 5.8717 26.133 4.03125 21.5 4.03125C16.867 4.03125 12.4238 5.8717 9.14773 9.14773C5.8717 12.4238 4.03125 16.867 4.03125 21.5V28.2188H1.34375V21.5C1.34375 16.1542 3.46735 11.0274 7.24738 7.24738C11.0274 3.46735 16.1542 1.34375 21.5 1.34375C26.8458 1.34375 31.9726 3.46735 35.7526 7.24738C39.5327 11.0274 41.6562 16.1542 41.6562 21.5V28.2188Z" fill="currentColor"></path>
    <path d="M9.71531 36.2812H8.0625C7.18018 36.2812 6.3065 36.1075 5.49135 35.7698C4.67619 35.4322 3.93552 34.9373 3.31163 34.3134C2.05162 33.0534 1.34375 31.3444 1.34375 29.5625V26.875C1.34375 25.0931 2.05162 23.3841 3.31163 22.1241C4.57164 20.8641 6.28058 20.1562 8.0625 20.1562H9.71531C10.3498 20.1668 10.9547 20.4263 11.3996 20.8788C11.8445 21.3312 12.0938 21.9404 12.0938 22.575V33.8625C12.0938 34.4971 11.8445 35.1063 11.3996 35.5587C10.9547 36.0112 10.3498 36.2707 9.71531 36.2812ZM8.0625 22.8438C6.99335 22.8438 5.96798 23.2685 5.21198 24.0245C4.45597 24.7805 4.03125 25.8058 4.03125 26.875V29.5625C4.03125 30.6317 4.45597 31.657 5.21198 32.413C5.96798 33.169 6.99335 33.5937 8.0625 33.5938H9.40625V22.8438H8.0625Z" fill="currentColor"></path>
    <path d="M34.9375 36.2812H33.325C32.6835 36.2812 32.0683 36.0264 31.6147 35.5728C31.1611 35.1192 30.9062 34.504 30.9062 33.8625V22.575C30.9062 21.9335 31.1611 21.3183 31.6147 20.8647C32.0683 20.4111 32.6835 20.1562 33.325 20.1562H34.9375C36.7194 20.1563 38.4284 20.8641 39.6884 22.1241C40.9484 23.3841 41.6562 25.0931 41.6562 26.875V29.5625C41.6562 31.3444 40.9484 33.0534 39.6884 34.3134C38.4284 35.5734 36.7194 36.2812 34.9375 36.2812ZM33.5938 33.5938H34.9375C36.0067 33.5937 37.032 33.169 37.788 32.413C38.544 31.657 38.9687 30.6317 38.9688 29.5625V26.875C38.9687 25.8058 38.544 24.7805 37.788 24.0245C37.032 23.2685 36.0067 22.8438 34.9375 22.8438H33.5938V33.5938Z" fill="currentColor"></path>
    <path d="M8.0625 21.5H9.71531C10.0004 21.5 10.2739 21.6133 10.4755 21.8149C10.6771 22.0165 10.7903 22.2899 10.7903 22.575V33.8625C10.7903 34.1476 10.6771 34.421 10.4755 34.6226C10.2739 34.8242 10.0004 34.9375 9.71531 34.9375H8.0625C6.63696 34.9375 5.26981 34.3712 4.2618 33.3632C3.25379 32.3552 2.6875 30.988 2.6875 29.5625V26.875C2.6875 25.4495 3.25379 24.0823 4.2618 23.0743C5.26981 22.0663 6.63696 21.5 8.0625 21.5Z" fill="currentColor"></path>
    <path d="M34.9375 34.9375H33.325C33.0399 34.9375 32.7665 34.8242 32.5649 34.6226C32.3633 34.421 32.25 34.1476 32.25 33.8625V22.575C32.25 22.2899 32.3633 22.0165 32.5649 21.8149C32.7665 21.6133 33.0399 21.5 33.325 21.5H34.9375C36.363 21.5 37.7302 22.0663 38.7382 23.0743C39.7462 24.0823 40.3125 25.4495 40.3125 26.875V29.5625C40.3125 30.988 39.7462 32.3552 38.7382 33.3632C37.7302 34.3712 36.363 34.9375 34.9375 34.9375Z" fill="currentColor"></path>
    <path d="M32.1022 41.6562H22.8438C22.4874 41.6562 22.1456 41.5147 21.8936 41.2627C21.6416 41.0107 21.5 40.6689 21.5 40.3125C21.5 39.9561 21.6416 39.6143 21.8936 39.3623C22.1456 39.1103 22.4874 38.9688 22.8438 38.9688H32.25C32.6064 38.9688 32.9482 38.8272 33.2002 38.5752C33.4522 38.3232 33.5938 37.9814 33.5938 37.625V34.9375H36.2813V37.625C36.2837 38.2841 36.1246 38.9338 35.8177 39.5171C35.5108 40.1005 35.0655 40.5996 34.5209 40.9709C33.8034 41.4406 32.9595 41.6797 32.1022 41.6562Z" fill="currentColor"></path>
  </symbol>
  <symbol xmlns="http://www.w3.org/2000/svg" viewBox="0 0 24 24" id="handshake-icon">
    <path d="M11.329 19.6c-.185.252-.47.385-.759.385-.194 0-.389-.06-.558-.183-.419-.309-.509-.896-.202-1.315l1.077-1.456c.308-.417.896-.508 1.315-.199.421.306.511.895.201 1.313l-1.074 1.455zm-.825-2.839c.308-.418.217-1.007-.201-1.316-.421-.308-1.008-.216-1.317.203l-1.073 1.449c-.309.419-.217 1.009.202 1.317.417.307 1.007.218 1.315-.202l1.074-1.451zm-1.9-1.388c.309-.417.217-1.007-.203-1.315-.418-.307-1.007-.216-1.314.202l-1.083 1.461c-.308.419-.209.995.209 1.304.421.308 1 .229 1.308-.19l1.083-1.462zm-1.898-1.386c.308-.419.219-1.007-.203-1.315-.419-.309-1.007-.218-1.315.201l-1.075 1.451c-.308.418-.217 1.008.202 1.315.419.307 1.008.218 1.315-.202l1.076-1.45zm17.294-8.438s-1.555.301-2.667.479c-2.146.344-4.144-.416-6.361-1.562-.445-.229-.957-.466-1.458-.466-.461 0-.913.209-1.292.639-1.366 1.547-2.16 2.915-3.785 3.864-.801.468.14 1.934 1.86 1.331.878-.308 1.736-.895 2.706-1.677.762-.615 1.22-.524 1.879.135 1.238 1.238 5.404 5.351 5.404 5.351 1.317-.812 2.422-1.312 3.713-1.792v-6.302zm-10.524 12.662c-.158.459-.618 1.001-.953 1.455.297.235.608.334.882.334.717 0 1.188-.671.542-1.318l-.471-.471zm6.506-3.463c-1.07-1.055-4.732-4.667-5.803-5.713-.165-.161-.421-.18-.608-.044-.639.464-2.082 1.485-2.944 1.788-1.685.59-3.115-.222-3.422-1.359-.192-.712.093-1.411.727-1.781 1.008-.589 1.657-1.375 2.456-2.363-.695-.539-1.35-.732-1.991-.732-1.706 0-3.317 1.366-5.336 1.231-1.373-.09-3.061-.403-3.061-.403v6.333c1.476.321 2.455.464 3.92 1.199l.462-.624c.364-.496.949-.792 1.564-.792.87 0 1.622.578 1.861 1.388.951 0 1.667.602 1.898 1.387.826-.031 1.641.519 1.897 1.385 1.171 0 2.017.92 1.981 2.007l1.168 1.168c.367.368.963.367 1.331 0 .368-.368.368-.964 0-1.332l-1.686-1.687c-.22-.22.113-.553.333-.333l2.032 2.033c.368.368.963.368 1.331 0s.368-.963 0-1.331l-2.501-2.502c-.221-.218.113-.553.333-.333l2.7 2.701c.368.368.963.368 1.331 0 .358-.356.361-.922.027-1.291z" fill="currentColor"></path>
  </symbol>
  <symbol fill="none" xmlns="http://www.w3.org/2000/svg" viewBox="0 0 1089 526" id="process-bg">
    <path d="M422.26 310.656C426.453 304.431 430.39 298.57 435.41 291.12C435.413 291.116 435.416 291.112 435.418 291.108C436.136 290.044 436.876 288.947 437.643 287.812C443.915 278.736 451.56 266.541 465.58 249.47C479.508 232.556 494.554 221.461 505.706 216.247C507.008 215.617 508.225 215.051 509.358 214.542C511.39 213.649 513.396 212.658 518.797 210.443C522.241 209.069 527.107 207.155 534.341 205.231C538.185 204.223 542.723 203.228 548.108 202.533C566.104 199.275 594.189 205.122 617.759 211.989C632.256 215.897 645.973 218.467 656.559 219.167C671.924 220.305 686.948 219.016 702.804 215.218C707.955 213.98 713.118 212.504 718.634 210.661C728.499 207.352 738.559 203.182 748.926 197.276C761.28 190.229 772.329 181.924 782.374 171.98C783.658 170.71 784.92 169.42 786.157 168.116C794.744 159.076 802.557 148.782 810.399 137.222C824.362 116.587 834.657 99.0505 850.606 83.1325C856.829 76.952 863.913 71.0928 872.34 65.8416C884.638 57.965 903.804 50.3151 924.521 46.6994C926.119 46.4073 927.708 46.1344 929.286 45.8807C931.188 45.5753 932.998 45.3072 934.942 45.0457C934.952 45.0444 934.961 45.0431 934.971 45.0418C955.334 42.2038 975.793 42.9526 990.381 45.2049C1013.72 48.9907 1021.94 52.8182 1028.93 55.2144C1031.58 56.2181 1033.92 57.1639 1036.77 58.4173C1046.91 62.865 1061.77 71.0046 1074.58 82.3513C1074.63 82.3984 1074.68 82.4452 1074.74 82.4915C1076.88 84.3931 1078.28 86.3641 1077.92 86.648C1077.61 86.9614 1075.72 85.5379 1073.61 83.6722C1066.97 77.7614 1059.71 72.7182 1053.09 68.736C1052.55 68.8582 1050.59 68.017 1048.42 66.8025C1042.94 63.9066 1025.87 54.0102 996.309 48.8141C998.31 49.2601 1000 49.6819 1001.44 50.0622C1003.12 50.5075 1004.44 50.8865 1005.56 51.2177C1007.89 51.9147 1009.37 52.3769 1012.14 53.2244C1018.46 55.0839 1028.31 58.4274 1038.14 63.1646C1040.65 64.3653 1042.41 65.6956 1042.21 66.0981C1041.97 66.4799 1039.88 65.7992 1037.4 64.6121C1037.35 64.5889 1037.3 64.5656 1037.25 64.5424C1027.62 59.9073 1017.53 56.4748 1010.99 54.5845C1009.29 54.0864 1007.88 53.6959 1006.8 53.3998C1005.93 53.1635 1004.84 52.8756 1004.24 52.7042C1004.16 52.6814 1004 52.6375 1003.82 52.5832C1003.82 52.5822 1003.81 52.5812 1003.81 52.5802C1003.71 52.5509 1003.17 52.3923 1002.64 52.2041C1002.53 52.1657 1002.3 52.0815 1002.03 51.9712C1001.95 51.9512 1001.88 51.9313 1001.81 51.9114C1000.8 51.6345 999.766 51.3588 998.628 51.0757C994.219 50.0517 987.137 48.1611 972.158 47.034C961.553 46.2974 945.164 46.2946 925.117 49.9488C918.912 51.0782 912.712 52.4915 906.223 54.4231C908.088 53.9017 910 53.4024 911.954 52.9276C916.415 51.8464 920.545 51.0093 925.167 50.2204C925.688 50.1321 926.208 50.0458 926.726 49.9617C928.641 49.6507 930.513 49.3719 932.402 49.1147C935.417 48.7041 938.618 48.3354 941.653 48.0567C943.695 47.8682 945.878 47.6977 947.953 47.5707C947.957 47.5703 947.962 47.57 947.967 47.5696C950.834 47.3932 953.807 47.2729 956.734 47.2233C957.761 47.2066 958.76 47.1981 959.762 47.1968C963.855 47.1941 967.719 47.2984 972.288 47.6295C972.837 47.6741 973.43 47.7289 973.87 47.7732C974.345 47.8204 974.797 47.8685 975.227 47.9168C975.617 47.9603 975.988 48.0039 976.343 48.0462C976.39 48.0518 976.438 48.0575 976.485 48.0632C976.882 48.1107 977.259 48.1569 977.621 48.202C977.983 48.2469 978.33 48.2913 978.671 48.334C978.674 48.3343 978.677 48.3346 978.681 48.3349C979.037 48.3793 979.307 48.4137 979.683 48.46C980.155 48.5183 980.559 48.5684 981.048 48.6284C981.52 48.6865 982.011 48.7473 982.505 48.8094C983.013 48.8728 983.532 48.9388 984.055 49.0069C984.579 49.0751 985.109 49.1459 985.641 49.2187C986.173 49.2914 986.71 49.3666 987.247 49.4444C987.784 49.5222 988.325 49.603 988.865 49.6862C990.098 49.8756 991.342 50.1631 992.196 50.4596C993.059 50.7573 993.512 51.0429 993.471 51.2481C993.429 51.4538 992.896 51.5641 991.98 51.5659C991.074 51.5689 989.808 51.4581 988.586 51.2893C988.249 51.2426 987.91 51.1967 987.568 51.1512C987.365 51.1243 987.16 51.097 986.955 51.0704C986.405 50.999 985.847 50.9295 985.282 50.8609C984.718 50.7924 984.147 50.7249 983.567 50.6586C982.987 50.5925 982.382 50.5258 981.807 50.4638C981.224 50.401 980.626 50.338 980.015 50.2749C979.42 50.2134 978.737 50.1439 978.124 50.0821C977.676 50.037 977.122 49.9804 976.658 49.9343C976.174 49.8861 975.696 49.839 975.233 49.7942C974.773 49.7496 974.346 49.7082 973.927 49.6695C973.883 49.6654 973.838 49.6614 973.793 49.6574C973.425 49.6235 973.068 49.5917 972.729 49.5633C972.351 49.5314 971.992 49.5035 971.65 49.4786C971.273 49.4512 971.043 49.4371 970.761 49.4206C966.974 49.2239 962.435 49.1647 958.021 49.2773C957.474 49.2908 956.928 49.3065 956.386 49.3243C953.501 49.4203 950.591 49.5841 947.747 49.8053C945.677 49.9656 943.497 50.17 941.469 50.391C938.455 50.7176 935.236 51.1403 932.261 51.5964C930.374 51.8849 928.504 52.1951 926.586 52.5389C926.266 52.5962 925.945 52.6544 925.624 52.7134C920.788 53.6073 916.545 54.5392 911.813 55.7783C906.993 57.0442 902.121 58.5581 897.486 60.2632C892.735 62.0096 888.056 64.0109 883.517 66.2735C880.3 67.869 876.87 69.7446 873.946 71.5087C872.349 72.4688 870.757 73.481 869.26 74.4792C869.255 74.4826 869.25 74.4859 869.245 74.4892C867.923 75.3713 866.663 76.2484 865.377 77.1858C862.652 79.1734 860.111 81.2072 857.608 83.393C855.141 85.5472 852.74 87.834 850.44 90.2027C848.148 92.5621 845.903 95.0597 843.762 97.6037C841.608 100.166 839.575 102.743 837.499 105.517C834.774 109.162 832.177 112.882 829.577 116.749C826.993 120.595 824.452 124.522 821.909 128.478C821.02 129.86 820.129 131.248 819.234 132.641C819.231 132.647 819.227 132.652 819.224 132.657C817.574 135.225 815.91 137.808 814.224 140.383C811.625 144.354 808.971 148.315 806.19 152.253C803.428 156.163 800.535 160.059 797.479 163.871C794.434 167.671 791.14 171.49 787.662 175.134C784.534 178.416 781.269 181.56 777.946 184.494C777.072 185.266 776.184 186.032 775.283 186.792C771.019 190.388 766.655 193.669 762.314 196.624C757.843 199.666 753.391 202.389 748.648 204.997C744.01 207.548 739.115 209.953 734.111 212.143C729.648 214.09 725.554 215.709 720.912 217.363C720.181 217.622 719.452 217.877 718.724 218.128C713.546 219.911 708.197 221.524 702.902 222.864C699.794 223.648 696.635 224.349 693.564 224.933C690.368 225.538 687.425 226.008 684.257 226.413C682.992 226.574 681.745 226.717 680.517 226.843C678.754 227.024 676.913 227.179 675.137 227.297C672.161 227.497 669.234 227.605 666.387 227.636C663.598 227.669 660.766 227.624 658.134 227.527C655.428 227.427 653.074 227.289 650.406 227.09C643.785 226.519 639.756 225.848 635.295 225.054C634.411 224.893 633.513 224.725 632.583 224.544C627.259 223.503 621.991 222.254 616.869 220.952C611.698 219.638 606.644 218.266 601.574 216.948C596.539 215.639 591.513 214.392 586.493 213.36C581.488 212.33 576.485 211.514 571.469 211.031C566.425 210.542 561.362 210.398 556.415 210.641C553.639 210.771 550.547 211.058 547.828 211.433C545.831 211.705 543.819 212.045 541.937 212.418C541.157 212.573 540.377 212.737 539.599 212.91C536.871 213.522 534.449 214.166 531.917 214.939C529.472 215.686 527.177 216.478 524.83 217.378C522.575 218.243 520.414 219.153 518.172 220.177C515.884 221.229 514.13 222.092 511.733 223.352C511.131 223.67 510.532 223.991 509.932 224.317C509.036 224.805 508.157 225.305 507.289 225.819C505.164 227.076 503.109 228.412 501.086 229.842C499.063 231.272 497.132 232.753 495.221 234.324C494.611 234.826 493.973 235.363 493.371 235.881C491.508 237.485 489.716 239.134 487.973 240.833C486.222 242.539 484.557 244.26 482.918 246.039C481.268 247.831 479.718 249.602 478.142 251.481C475.491 254.644 472.999 257.756 470.865 260.513C468.697 263.314 466.723 265.962 464.828 268.577C464.474 269.066 464.121 269.557 463.769 270.049C462.247 272.173 460.777 274.274 459.343 276.366C457.568 278.955 455.871 281.494 454.167 284.087C452.49 286.64 450.801 289.255 449.159 291.828C447.499 294.431 445.919 296.934 444.221 299.638C442.54 302.312 440.843 305.044 438.968 308.036C437.108 311.005 435.142 314.114 433.108 317.253C431.079 320.383 428.974 323.554 426.822 326.68C424.67 329.805 422.443 332.927 420.187 335.946C417.902 339.004 415.577 341.979 413.155 344.907C410.758 347.806 408.163 350.768 405.638 353.456C401.567 357.795 397.224 361.967 392.591 365.814C387.961 369.658 383.024 373.191 377.757 376.267C375.294 377.705 372.769 379.038 370.17 380.26C367.206 381.653 364.281 382.893 361.379 383.996C355.66 386.172 349.904 387.866 344.061 389.083C342.733 389.359 341.414 389.608 340.102 389.831C335.551 390.607 330.809 391.103 326.159 391.292C326.127 391.294 326.095 391.295 326.063 391.296C320.087 391.538 314.217 391.305 308.347 390.701C306.216 390.482 304.145 390.22 302.072 389.918C299.999 389.616 297.979 389.281 295.938 388.91C293.897 388.538 291.91 388.144 289.925 387.725C287.926 387.302 286.02 386.875 284.074 386.423C282.293 386.009 280.54 385.59 278.645 385.124C278.473 385.081 278.297 385.038 278.123 384.995C276.024 384.476 273.681 383.875 271.51 383.303C265.741 381.784 260.218 380.305 254.616 379.024C248.999 377.743 243.491 376.704 237.936 376.167C235.794 375.96 233.609 375.83 231.477 375.799C228.142 375.749 224.841 375.936 221.588 376.409C216.269 377.172 211.015 378.762 206.147 381.076C201.233 383.4 196.607 386.453 192.234 390.046C187.918 393.589 183.793 397.73 180.063 401.993C175.81 406.856 171.956 411.96 168.295 417.294C166.756 419.537 165.205 421.895 163.641 424.371C161.513 427.743 159.395 430.977 157.293 434.073C153.395 439.819 149.46 445.24 145.295 450.55C141.073 455.933 136.625 461.165 132.037 466.05C129.122 469.153 126.419 471.859 123.298 474.778C121.717 476.334 120.343 477.644 118.768 479.082C107.679 489.006 98.6421 495.436 85.0823 501.044C83.7567 501.576 82.7691 501.964 81.4117 502.456C81.1553 502.548 80.8837 502.645 80.6078 502.741C78.8663 503.345 76.883 503.992 74.0086 504.685C68.3376 505.998 59.1374 507.618 47.4015 505.163C44.4764 504.528 42.7823 503.567 43.505 503.315C43.9648 503.117 45.6154 503.303 47.4278 503.56C44.0049 502.867 40.6217 501.858 37.4085 500.497C36.0478 499.921 34.95 499.289 34.1169 498.67C33.9027 498.512 33.8151 498.416 33.6247 498.259C33.445 498.107 33.3413 497.992 33.2793 497.899C33.2639 497.875 33.2511 497.854 33.2406 497.833C33.2159 497.804 33.1703 497.762 33.1485 497.734C33.0992 497.675 33.0809 497.633 33.0753 497.6C33.067 497.534 33.0976 497.491 33.132 497.451C33.3668 497.352 34.009 497.52 35.0662 497.895C35.9827 498.202 37.3469 498.734 38.561 499.208C41.9351 500.533 45.4293 501.453 48.9338 502.038C52.4453 502.622 55.9956 502.871 59.5776 502.809C63.0558 502.754 66.7181 502.372 70.124 501.745C73.6303 501.102 76.9964 500.214 80.3809 499.074C83.7126 497.949 86.9279 496.621 90.1373 495.073C92.0531 494.147 93.8741 493.192 95.7634 492.122C96.4466 491.735 97.0707 491.371 97.7217 490.984C98.2503 490.669 98.7839 490.345 99.3353 490.003C105.051 486.465 110.602 482.258 115.598 477.915C120.74 473.446 125.429 468.788 130.044 463.726C134.502 458.831 138.808 453.609 142.883 448.256C146.928 442.941 150.733 437.534 154.494 431.825C156.474 428.815 158.47 425.677 160.474 422.41C162.08 419.794 163.676 417.301 165.26 414.93C168.037 410.775 171.026 406.627 174.184 402.685C175.43 401.077 176.66 399.561 177.87 398.131C181.554 393.784 185.454 389.714 189.605 386.124C181.944 392.59 177.053 398.494 172.292 404.698C171.704 405.476 171.118 406.266 170.533 407.068C166.968 411.972 163.928 416.595 160.398 422.363C157.784 426.639 155.232 430.643 151.863 435.555C129.987 467.372 111.522 481.761 99.6782 489.098C87.5737 496.366 81.4809 497.831 76.0304 499.156C68.2103 501.316 52.7197 501.708 45.2667 499.369C42.5329 498.703 40.5322 497.562 40.7275 497.159C40.8717 496.73 43.0647 497.162 45.6978 497.799C53.3189 500.231 69.741 499.62 78.6558 496.763C82.6005 495.583 87.4426 494.574 99.195 487.482C110.634 480.315 128.763 466.279 150.574 434.557C153.905 429.696 156.425 425.74 159.013 421.506C162.372 416.017 165.22 411.651 168.716 406.792C169.302 405.98 169.891 405.178 170.484 404.385C170.487 404.38 170.491 404.375 170.495 404.37C176.277 396.824 182.796 388.665 194.147 380.624C221.622 358.244 267.604 376.155 276.472 377.393C278.414 377.862 280.315 378.308 282.289 378.756C289.926 380.218 299.128 383.361 320.22 383.839C324.801 383.843 330.185 383.573 336.038 382.708C344.786 381.215 352.837 378.606 359.745 375.705C362.049 374.738 364.301 373.69 366.517 372.566C369.755 370.919 372.739 369.116 375.567 367.187C376.92 366.264 378.249 365.303 379.557 364.307C382.713 361.906 385.727 359.311 388.545 356.686C390.811 354.577 393.07 352.296 395.399 349.768C403.845 340.621 412.767 328.523 423.782 312.146C435.447 294.757 445.086 279.368 454.336 266.634C447.552 275.997 442.628 283.373 438.493 289.472C437.714 290.625 436.971 291.728 436.256 292.79C431.202 300.293 427.55 305.711 423.643 311.515C404.948 339.114 396.206 347.792 386.172 357.154C383.476 359.569 380.418 362.119 376.943 364.62C373.655 366.986 370.003 369.3 365.953 371.38C361.277 373.773 356.375 375.895 351.09 377.64C341.682 380.764 330.73 382.862 318.854 382.904C318.849 382.904 318.845 382.903 318.84 382.903C316.508 382.916 314.219 382.86 311.823 382.73C297.394 382.002 282.36 378.352 267.784 374.744C266.214 374.36 264.327 373.906 262.18 373.407C250.164 371.189 226.03 362.996 200.609 376.099C195.289 378.855 189.876 382.548 184.555 387.203C182.818 388.726 181.26 390.18 179.566 391.865C172.766 398.646 165.377 407.709 157.34 420.47C156.792 421.341 156.236 422.216 155.673 423.095C148.433 434.396 138.891 448.028 127.474 460.496C121.772 466.724 115.665 472.6 109.151 477.805C89.7854 493.498 65.7467 502.6 43.8945 496.107C43.8902 496.106 43.8859 496.104 43.8816 496.103C41.3342 495.345 39.6176 494.183 39.8945 493.817C40.1225 493.425 42.2082 493.928 44.6447 494.63C65.8093 500.773 89.1898 491.921 108.28 476.417C114.607 471.349 120.61 465.581 126.246 459.427C137.628 447.009 147.255 433.248 154.514 421.885C155 421.125 155.48 420.367 155.955 419.613C164.287 406.377 172.007 396.972 179.151 389.976C180.916 388.25 182.719 386.603 184.474 385.11C189.882 380.511 195.174 377.036 200.314 374.42C225.719 361.611 249.342 369.318 261.454 371.561C263.676 372.07 265.624 372.536 267.293 372.943C281.617 376.468 296.311 380.122 310.527 381.005C312.842 381.157 315.128 381.242 317.394 381.258C317.399 381.258 317.403 381.258 317.408 381.258C329.076 381.377 340.158 379.444 349.592 376.405C355.294 374.583 360.417 372.363 365.243 369.884C368.313 368.3 371.145 366.585 373.822 364.771C377.424 362.329 380.724 359.723 383.87 356.985C394.498 347.356 403.566 338.256 422.26 310.656ZM52.7773 504.383C59.8565 505.236 65.7605 504.606 69.9756 503.863C66.4089 504.442 62.6692 504.751 59.0341 504.731C56.9268 504.721 54.818 504.603 52.7773 504.383ZM337.073 384.196C336.028 384.384 334.946 384.562 333.85 384.723C336.895 384.336 339.77 383.844 342.788 383.193C346.323 382.43 350.051 381.411 353.463 380.286C347.891 382.093 342.299 383.388 337.073 384.196ZM425.157 313.017C414.718 328.504 406.59 339.743 398.255 349.095C395.872 351.766 393.442 354.305 390.95 356.69C389.913 357.683 388.867 358.657 387.799 359.619C394.249 354.232 399.608 348.609 403.801 343.855C416.189 329.504 422.122 320.357 427.613 312.588C429.18 310.317 430.672 308.127 432.185 305.884C433.371 303.982 434.596 302.01 435.841 300.015C437.583 297.222 439.467 294.205 441.273 291.339C443.087 288.46 444.94 285.546 446.788 282.692C448.645 279.823 450.522 276.975 452.41 274.179C454.199 271.531 455.992 268.937 457.781 266.421C457.883 266.277 457.985 266.134 458.087 265.99C459.966 263.354 461.853 260.789 463.597 258.477C465.381 256.112 466.899 254.159 468.235 252.441C469.928 250.267 471.678 248.109 473.495 245.98C475.307 243.856 477.151 241.797 479.066 239.778C480.971 237.77 482.938 235.81 484.955 233.926C485.606 233.318 486.299 232.685 486.964 232.09C487.271 231.816 487.578 231.544 487.885 231.275C483.731 234.777 479.677 238.662 475.704 242.893C469.973 248.995 464.307 255.886 458.47 263.744C448.458 277.125 438.224 293.493 425.157 313.017ZM563.745 203.45C561.366 203.417 557.879 203.437 553.445 203.819C552.393 203.91 551.278 204.023 550.1 204.164C550.127 204.161 550.156 204.158 550.184 204.155C553.119 203.862 555.714 203.709 558.644 203.646C563.752 203.542 568.791 203.815 573.763 204.384C578.783 204.956 583.716 205.825 588.603 206.874C593.5 207.925 598.34 209.153 603.122 210.421C607.93 211.697 612.675 213.01 617.427 214.256C618.949 214.655 620.477 215.049 621.994 215.43C618.612 214.53 615.099 213.557 611.361 212.512C608.397 211.685 605.276 210.809 601.997 209.919C600.737 209.577 599.213 209.163 597.434 208.697C590.377 206.943 579.113 203.772 563.745 203.45ZM660.457 221.238C661.584 221.278 662.723 221.306 663.838 221.321C666.914 221.366 670.125 221.312 673.049 221.172C675.129 221.075 677.327 220.924 679.313 220.743C680.168 220.666 681.028 220.58 681.885 220.488C683.31 220.334 684.8 220.149 686.177 219.958C676.273 221.241 666.529 221.537 656.394 220.786C656.259 220.776 656.123 220.766 655.987 220.756C657.542 220.946 658.983 221.102 660.457 221.238Z" fill="#C8A450"></path>
    <foreignObject x="-36.5518" y="435.028" width="130" height="130">
      <div xmlns="http://www.w3.org/1999/xhtml"></div>
    </foreignObject>
    <g data-figma-bg-blur-radius="40">
      <rect x="3.94824" y="475.528" width="49" height="49" rx="24.5" fill="white" fill-opacity="0.19"></rect>
      <rect x="3.94824" y="475.528" width="49" height="49" rx="24.5" stroke="url(#paint0_linear_979_8)"></rect>
      <circle cx="28.9482" cy="500.528" r="12.5" fill="#C8A450"></circle>
    </g>
    <foreignObject x="308.448" y="306.028" width="130" height="130">
      <div xmlns="http://www.w3.org/1999/xhtml"></div>
    </foreignObject>
    <g data-figma-bg-blur-radius="40">
      <rect x="348.948" y="346.528" width="49" height="49" rx="24.5" fill="white"></rect>
      <rect x="348.948" y="346.528" width="49" height="49" rx="24.5" stroke="url(#paint1_linear_979_8)"></rect>
      <circle cx="373.948" cy="371.528" r="12.5" fill="#C8A450"></circle>
    </g>
    <foreignObject x="653.448" y="148.028" width="130" height="130">
      <div xmlns="http://www.w3.org/1999/xhtml"></div>
    </foreignObject>
    <g data-figma-bg-blur-radius="40">
      <rect x="693.948" y="188.528" width="49" height="49" rx="24.5" fill="white" fill-opacity="0.19"></rect>
      <rect x="693.948" y="188.528" width="49" height="49" rx="24.5" stroke="url(#paint2_linear_979_8)"></rect>
      <circle cx="718.948" cy="213.528" r="12.5" fill="#C8A450"></circle>
    </g>
    <foreignObject x="998.448" y="9.02808" width="130" height="130">
      <div xmlns="http://www.w3.org/1999/xhtml"></div>
    </foreignObject>
    <g data-figma-bg-blur-radius="40">
      <rect x="1038.95" y="49.5281" width="49" height="49" rx="24.5" fill="white" fill-opacity="0.19"></rect>
      <rect x="1038.95" y="49.5281" width="49" height="49" rx="24.5" stroke="url(#paint3_linear_979_8)"></rect>
      <circle cx="1063.95" cy="74.5281" r="12.5" fill="#C8A450"></circle>
    </g>
    <defs>
      <clipPath id="bgblur_0_979_8_clip_path" transform="translate(36.5518 -435.028)">
        <rect x="3.94824" y="475.528" width="49" height="49" rx="24.5"></rect>
      </clipPath>
      <clipPath id="bgblur_1_979_8_clip_path" transform="translate(-308.448 -306.028)">
        <rect x="348.948" y="346.528" width="49" height="49" rx="24.5"></rect>
      </clipPath>
      <clipPath id="bgblur_2_979_8_clip_path" transform="translate(-653.448 -148.028)">
        <rect x="693.948" y="188.528" width="49" height="49" rx="24.5"></rect>
      </clipPath>
      <clipPath id="bgblur_3_979_8_clip_path" transform="translate(-998.448 -9.02808)">
        <rect x="1038.95" y="49.5281" width="49" height="49" rx="24.5"></rect>
      </clipPath>
      <linearGradient id="paint0_linear_979_8" x1="28.4482" y1="525.028" x2="28.4482" y2="475.028" gradientUnits="userSpaceOnUse">
        <stop stop-color="white"></stop>
        <stop offset="1" stop-color="#AAAAAA" stop-opacity="0.26"></stop>
      </linearGradient>
      <linearGradient id="paint1_linear_979_8" x1="384.448" y1="346.028" x2="373.448" y2="396.028" gradientUnits="userSpaceOnUse">
        <stop stop-color="white"></stop>
        <stop offset="1" stop-color="#AAAAAA" stop-opacity="0.26"></stop>
      </linearGradient>
      <linearGradient id="paint2_linear_979_8" x1="718.448" y1="238.028" x2="718.448" y2="188.028" gradientUnits="userSpaceOnUse">
        <stop stop-color="white"></stop>
        <stop offset="1" stop-color="#AAAAAA" stop-opacity="0.26"></stop>
      </linearGradient>
      <linearGradient id="paint3_linear_979_8" x1="1063.45" y1="99.0281" x2="1063.45" y2="49.0281" gradientUnits="userSpaceOnUse">
        <stop stop-color="white"></stop>
        <stop offset="1" stop-color="#AAAAAA" stop-opacity="0.26"></stop>
      </linearGradient>
    </defs>
  </symbol>
</svg>