<svg width="0" height="0" class="hidden">
  <symbol xmlns="http://www.w3.org/2000/svg" fill="currentColor" viewBox="0 0 24 24" id="arrow-right">
    <path d="M16.1716 10.9999L10.8076 5.63589L12.2218 4.22168L20 11.9999L12.2218 19.778L10.8076 18.3638L16.1716 12.9999H4V10.9999H16.1716Z"></path>
  </symbol>
  <symbol xmlns="http://www.w3.org/2000/svg" fill="currentColor" viewBox="0 0 24 24" id="arrow-left">
    <path d="M7.82843 10.9999H20V12.9999H7.82843L13.1924 18.3638L11.7782 19.778L4 11.9999L11.7782 4.22168L13.1924 5.63589L7.82843 10.9999Z"></path>
  </symbol>
  <symbol xmlns="http://www.w3.org/2000/svg" fill="currentColor" viewBox="0 0 24 24" id="plus-icon">
    <path d="M13.0001 10.9999L22.0002 10.9997L22.0002 12.9997L13.0001 12.9999L13.0001 21.9998L11.0001 21.9998L11.0001 12.9999L2.00004 13.0001L2 11.0001L11.0001 10.9999L11 2.00025L13 2.00024L13.0001 10.9999Z"></path>
  </symbol>
  <symbol fill="none" xmlns="http://www.w3.org/2000/svg" viewBox="0 0 52 52" id="video-icon">
    <circle cx="26" cy="26" r="26" fill="white"></circle>
    <path id="video-btn__triangle" d="M38 26L20 15.6077V36.3923L38 26Z" fill="currentColor"></path>
  </symbol>

</svg>