<svg width="0" height="0" class="hidden">
  <symbol xmlns="http://www.w3.org/2000/svg" fill="currentColor" viewBox="0 0 24 24" id="arrow-right-up">
    <path d="M5.63589 19.7784L4.22169 18.3644L15.657 6.92908L10.0712 6.92908V4.92908L19.0712 4.92908L19.0712 13.9291H17.0712L17.0712 8.34326L5.63589 19.7784Z"></path>
  </symbol>
  <symbol xmlns="http://www.w3.org/2000/svg" fill="currentColor" viewBox="0 0 24 24" id="arrow-right">
    <path d="M16.1716 10.9999L10.8076 5.63589L12.2218 4.22168L20 11.9999L12.2218 19.778L10.8076 18.3638L16.1716 12.9999H4V10.9999H16.1716Z"></path>
  </symbol>
  <symbol xmlns="http://www.w3.org/2000/svg" fill="currentColor" viewBox="0 0 24 24" id="arrow-left">
    <path d="M7.82843 10.9999H20V12.9999H7.82843L13.1924 18.3638L11.7782 19.778L4 11.9999L11.7782 4.22168L13.1924 5.63589L7.82843 10.9999Z"></path>
  </symbol>
  <symbol xmlns="http://www.w3.org/2000/svg" fill="currentColor" viewBox="0 0 24 24" id="plus-icon">
    <path d="M13.0001 10.9999L22.0002 10.9997L22.0002 12.9997L13.0001 12.9999L13.0001 21.9998L11.0001 21.9998L11.0001 12.9999L2.00004 13.0001L2 11.0001L11.0001 10.9999L11 2.00025L13 2.00024L13.0001 10.9999Z"></path>
  </symbol>
  <symbol fill="none" xmlns="http://www.w3.org/2000/svg" viewBox="0 0 52 52" id="video-icon">
    <circle cx="26" cy="26" r="26" fill="white"></circle>
    <path id="video-btn__triangle" d="M38 26L20 15.6077V36.3923L38 26Z" fill="currentColor"></path>
  </symbol>
    <symbol fill="currentColor" xmlns="http://www.w3.org/2000/svg" viewBox="0 0 359.27 364.96" id="review-icon">
    <path d="M-205.89,500.29H-322.06a27.84,27.84,0,0,0-4.09.1c-3.12.47-4.9,2.37-5,5.52a5.28,5.28,0,0,0,4.59,5.85,24.16,24.16,0,0,0,4.82.28c41.77,0,83.53,0,125.3.1a14.64,14.64,0,0,1,7.21,2.12c18.28,11.21,37.93,14.81,59,11.14.48-.08,1-.09,1.69-.15v72.59h-247V277.65h195.05v3.81q0,17.16,0,34.32c0,9,4.73,13.72,13.85,13.74q17,0,33.93,0h4.16v34.8c-7.86-.18-15.6-1.15-23.15-.32-8.16.89-16.15,3.48-24.21,5.29-2.27.51-4.55,1.3-6.83,1.31q-69.74.11-139.46.06c-6.19,0-8.93,1.81-9,5.92s2.62,6,8.78,6h123.66c-3.93,4.35-7.83,8-10.92,12.25a144.57,144.57,0,0,0-9.9,16.13c-1.19,2.19-2.3,2.95-4.75,2.95q-49-.13-98.07-.06a22,22,0,0,0-3.35.05c-3.2.47-5.25,2.24-5.42,5.6s1.73,5.35,4.85,6.09a17.94,17.94,0,0,0,4.09.18h96.35c-.48,10.47-.94,20.59-1.43,31.28h-94.75a33.13,33.13,0,0,0-3.73.06c-3.1.34-5,2.09-5.36,5.21-.33,3.31,1.32,5.51,4.54,6.28a19.3,19.3,0,0,0,4.44.31q47.35,0,94.71-.05c2.79,0,4.14.68,5,3.47C-219.14,482.53-213.51,491.42-205.89,500.29ZM-252,543.45h-70a22.81,22.81,0,0,0-4.46.19,5.32,5.32,0,0,0-4.63,5.82,5.3,5.3,0,0,0,4.6,5.48,20.59,20.59,0,0,0,4.09.18h140.84a31.16,31.16,0,0,0,3.35-.09,5.82,5.82,0,0,0,5.28-5.73,5.78,5.78,0,0,0-5.25-5.74,37.29,37.29,0,0,0-4.1-.11Zm-21-204.07H-222c4.88,0,7.49-2,7.58-5.71s-2.57-6.13-7.28-6.13q-51.06-.06-102.12,0c-4.81,0-7.4,2.26-7.37,6s2.55,5.81,7.44,5.82Z" transform="translate(375.56 -232.89)"></path>
    <path d="M-336.92,265.44V232.89h195.2v3.82q0,17.16,0,34.31c0,9,4.75,13.73,13.85,13.74q17,0,33.93,0h4.17V385c-1.12-.82-1.83-1.43-2.61-1.92-7-4.39-13.95-9-21.17-13-2.16-1.22-3-2.2-3-4.67.11-14.92-.06-29.84.11-44.75a17.44,17.44,0,0,0-5.54-13.6q-18.4-18-36.39-36.38a16.89,16.89,0,0,0-12.95-5.29q-80.35.12-160.71.05Z" transform="translate(375.56 -232.89)"></path>
    <path d="M-87.49,484.48q10.32,11,20.36,21.77c6.28-3.79,7.65-3.6,12.7,1.3q17.24,16.77,34.5,33.52c4.82,4.68,4.84,7.43.15,12.26-3.73,3.83-7.43,7.69-11.19,11.49-3.94,4-7.21,4-11.22.16Q-60,547.75-77.77,530.43c-4.37-4.26-4.61-6.2-2.1-10.32l-20.06-21.73c-32.62,26.45-74.83,19.14-97.72-6.74-23.48-26.55-23.61-66.39-.28-92.63A69.92,69.92,0,0,1-106,387.48C-78.18,406.33-63.74,448.31-87.49,484.48Zm-4.61-39.22a53.47,53.47,0,0,0-53.11-53.6A53.69,53.69,0,0,0-199,445.05a53.52,53.52,0,0,0,53.57,53.52A53.33,53.33,0,0,0-92.1,445.26Z" transform="translate(375.56 -232.89)"></path>
    <path d="M-100.45,513.62l6,6.9c.4.46,1,.93,1.08,1.45,1.07,10.3,6.42,20.12,2.9,31.4H-116.5c0-8.48.39-16.66-.14-24.79-.34-5.25,1-8.2,6.24-9.76C-107.26,517.88-104.47,515.78-100.45,513.62Z" transform="translate(375.56 -232.89)"></path>
    <path d="M-129.46,233.52l39.24,39h-39.24Z" transform="translate(375.56 -232.89)"></path>
    <path d="M-168.44,317.35V279.23l38.08,38.12Z" transform="translate(375.56 -232.89)"></path>
  </symbol>
  <symbol fill="currentColor" xmlns="http://www.w3.org/2000/svg" viewBox="0 0 350.41 337.62" id="legal-actions">
    <path d="M-379.74,589.59a1.29,1.29,0,0,0,.34,0c3.32-.64,7.3-.38,9.74-2.2s3.12-5.63,4.82-9.06a19.62,19.62,0,0,1,1.74,3.53c1.31,5.15,4.62,7.38,9.83,7.17a18.69,18.69,0,0,1,3.7.8c-6.95,4.56-9.34,10.28-5.78,17.43-.74.25-1,.42-1.09.35-5.78-4.51-11.52-5.07-17.55,1.29.25-2.39.11-3.7.54-4.78,2.76-6.87-1.7-10.37-6.29-13.85Z" transform="translate(379.74 -271.29)"></path>
    <path d="M-243.27,558.48c1.86-14.81,3.71-29.49,5.56-44.16q3.26-25.76,6.53-51.5c.78-6.21,1.4-12.45,2.41-18.62a8.72,8.72,0,0,0-2.4-8.25c-15.12-16.35-23.45-36.09-27.92-57.63-.17-.82,1-2,1.71-2.9.22-.3.85-.27,1.26-.45,4-1.73,7.22-1.39,11.11,1.47,10.64,7.84,22,3.68,25.73-9,3.9,3,8.08,5,13.17,4.13A14.47,14.47,0,0,0-195,363.38a4,4,0,0,1,2.51-2c7-.82,13.93-1.44,21.21-2.15l4.06,10.54c-5.17,5-10.65,9.61-15.39,14.92a57.61,57.61,0,0,0-12.69,25c-.44,1.78-.48,3.51,1.51,3.74.83.1,2.46-1.54,2.75-2.64,4.22-16.27,13.65-28.59,27.92-37.29,2.28-1.39,2.3-2.6,1.17-5a84.2,84.2,0,0,1-4.81-12.92c-.77-2.68-1.78-3.21-4.35-2.36-11.11,3.71-22.44,4.94-34,2.17a20.55,20.55,0,0,1-11.56-6.83c-4.72-5.81-2.77-12.42,4.43-14.4q18.73-5.14,37.56-10c3.91-1,7.72-.71,10.8,2.42,7.5,7.63,15.06,15.2,22.5,22.89a122.9,122.9,0,0,1,8.13,9.24c5.78,7.32,6.92,15.26,3.2,24a234.17,234.17,0,0,1-24.06,42.39,13.84,13.84,0,0,0-2.69,8.5q.16,60.19.11,120.41v4.36Z" transform="translate(379.74 -271.29)"></path>
    <path d="M-289,507h6.89c3.88,27.48-8.51,50.28-34.49,57-24.85,6.49-49.67-8.92-55.85-33.94a28.42,28.42,0,0,1-1-6.05c-.13-5.56,0-11.13,0-17h8c3.05-10.63,6-21,9-31.34q11.19-39.36,22.36-78.71c.54-1.88.56-3.21-.9-4.88-3.32-3.77-2.8-8.88.87-12.61a8.78,8.78,0,0,1,11.8-1c3.78,2.76,5.22,8.18,2.71,12.18-1.41,2.25-1.21,4.09-.56,6.36q15.18,53.46,30.26,107C-289.78,504.86-289.46,505.71-289,507Zm-5.49-.94c-.21-1.1-.3-1.9-.52-2.66q-14.83-52.49-29.75-104.95a4.22,4.22,0,0,0-2.21-2.63c-2.17-.65-2.42,1.24-2.87,2.8q-13.31,47.08-26.66,94.16c-1.23,4.33-2.44,8.67-3.74,13.28Z" transform="translate(379.74 -271.29)"></path>
    <path d="M-30,430.05c1.79,19.38-1.58,36.55-17.67,48.73-14.7,11.13-31,13-47.63,5.18s-25.48-21.48-26.41-40c-.23-4.52,0-9.06,0-13.87h7.83c.42-1.11.84-2,1.11-3q15-52.79,30.05-105.56c.58-2,.71-3.62-.87-5.55-3-3.72-2.32-9.06,1.12-12.4a8.93,8.93,0,0,1,11.58-.78,10.35,10.35,0,0,1,3.27,12.23,8.13,8.13,0,0,0-.61,5q15,53.52,30.11,107c.61,2.16,1.43,3.42,3.92,3A28.27,28.27,0,0,1-30,430.05Zm-12.4-.93L-73.22,319.9l-4.42.4-30.81,108.82Z" transform="translate(379.74 -271.29)"></path>
    <path d="M-279.09,601.23c0-3.34-.05-6.28,0-9.22.08-4.63,2.52-7.17,7.11-7.47.91-.06,1.82,0,2.73,0h134.46a27.76,27.76,0,0,1,3.76.16,6.36,6.36,0,0,1,5.85,6.45c.12,3.18,0,6.37,0,10.11h58.85a6.88,6.88,0,0,1,2.7.13c.8.37,1.82,1.28,1.86,2a3,3,0,0,1-1.55,2.27,8.66,8.66,0,0,1-3.36.27h-271c-.68,0-1.5.23-2-.06a24.56,24.56,0,0,1-3-2.25c1-.79,2.07-2.24,3.13-2.26,9.46-.18,18.93-.11,28.4-.11Z" transform="translate(379.74 -271.29)"></path>
    <path d="M-256.33,579.75c0-3.51-.23-6.92.06-10.28.31-3.54,2.68-5.64,6.29-6.12a29.25,29.25,0,0,1,3.75-.15h88.51c7.88,0,9.94,2,9.94,9.87,0,2.15,0,4.29,0,6.68Z" transform="translate(379.74 -271.29)"></path>
    <path d="M-262.13,344.54c.26-8.11,3.28-13,8.63-16.65a7.21,7.21,0,0,1,10.81,4.6c1.22,5.13,4.37,9.88,7.14,14.53s6.19,8.73,9.06,13.24,2.5,8.75-.63,12.27-7.54,4.47-12.15,2.54a19.65,19.65,0,0,1-4.71-2.7,54,54,0,0,1-15.83-19.85A46.26,46.26,0,0,1-262.13,344.54Z" transform="translate(379.74 -271.29)"></path>
    <path d="M-49.3,585.93c-8.59-8.28-16.57-15.6-19.31-26.69-1-4.14.36-7.64,3.52-10.42,2.89-2.55,6.25-4.15,10-2.32,2.22,1.08,4,3.09,6,4.7,5.29-5.82,9.11-6.7,15-3.06,4,2.48,5.73,6.29,4.27,10.82a30.11,30.11,0,0,1-4.36,9.14C-38.83,574.1-44,579.71-49.3,585.93Z" transform="translate(379.74 -271.29)"></path>
    <path d="M-328.47,332.29c-5.16-6.37-10.11-12.29-14.8-18.4a20.63,20.63,0,0,1-2.85-6.16c-2.07-6.48.14-11.7,6-14.59,4.62-2.28,8.77-.65,12.88,5.17,2.2-4.72,5.93-6.53,10.91-5.63,4.47.8,8.63,4.38,8.69,8.45a21.18,21.18,0,0,1-2.24,9.41C-314.08,318.93-320.77,325.32-328.47,332.29Z" transform="translate(379.74 -271.29)"></path>
    <path d="M-144,336.82c-4.38-3.68-8.71-7.22-12.92-10.89a26.67,26.67,0,0,0-13.26-6.64,3.78,3.78,0,0,1-2.52-2.28c-1.58-6.44,1.32-14.27,6.31-17.66,5.45-3.71,14.14-3.6,19.72.18,4.79,3.23,6.49,8.13,6,13.38C-141.4,321.34-143,329.71-144,336.82Z" transform="translate(379.74 -271.29)"></path>
    <path d="M-210.87,328c-3.81,2.77-7.44,4.65-10,7.48-4.69,5.14-3.27,12.8,2.79,18.1,4.84,4.23,10.86,5.53,16.91,6.73l1.62.33c-3.05,7.28-11.2,9.05-16.27,3.46-5.52-6.07-10.91-12.28-16-18.72-4.36-5.5-7.75-11.55-7-19.05,1.11-11.57,12.38-14.64,19.81-13.15a5.72,5.72,0,0,1,3.43,2.91C-213.73,320.23-212.24,324.52-210.87,328Z" transform="translate(379.74 -271.29)"></path>
    <path d="M-177.24,320.37l-28.32,7.56c-7.11-10.12-3.56-24.91,6.83-28.45a17.79,17.79,0,0,1,16.6,2.37c3.3,2.34,5.33,5.49,4.93,9.88C-177.44,314.42-177.24,317.16-177.24,320.37Z" transform="translate(379.74 -271.29)"></path>
    <path d="M-313.33,387.54l-3.2-10.48L-301,372.4c12.5-3.76,25-7.5,37.49-11.33,2-.61,3.23-.54,4.46,1.45a77.63,77.63,0,0,0,5.54,7.08Z" transform="translate(379.74 -271.29)"></path>
    <path d="M-139.88,335.51c.67-4.11,1.14-7.46,1.82-10.76a2.84,2.84,0,0,1,1.69-1.73c15.27-4.65,30.57-9.21,45.74-13.76,1.06,3.53,2.06,6.84,3.17,10.55Z" transform="translate(379.74 -271.29)"></path>
    <path d="M-44.23,271.29c2.08,7.67,6.09,12.13,14.52,10.79v.84a56.51,56.51,0,0,1-4.48,4.79,5.73,5.73,0,0,0-2,6.27,36,36,0,0,1,.84,7.12c-5.92-5.27-11.69-5.47-17.91.07,2.32-7.6,1.68-13.86-5.92-18.36C-50.65,283.31-46.26,279.05-44.23,271.29Z" transform="translate(379.74 -271.29)"></path>
  </symbol>
    <symbol fill="currentColor" xmlns="http://www.w3.org/2000/svg" viewBox="0 0 43 43" id="consultation-icon">
    <path d="M41.6562 28.2188H38.9688V21.5C38.9687 16.867 37.1283 12.4238 33.8523 9.14773C30.5762 5.8717 26.133 4.03125 21.5 4.03125C16.867 4.03125 12.4238 5.8717 9.14773 9.14773C5.8717 12.4238 4.03125 16.867 4.03125 21.5V28.2188H1.34375V21.5C1.34375 16.1542 3.46735 11.0274 7.24738 7.24738C11.0274 3.46735 16.1542 1.34375 21.5 1.34375C26.8458 1.34375 31.9726 3.46735 35.7526 7.24738C39.5327 11.0274 41.6562 16.1542 41.6562 21.5V28.2188Z" fill="currentColor"></path>
    <path d="M9.71531 36.2812H8.0625C7.18018 36.2812 6.3065 36.1075 5.49135 35.7698C4.67619 35.4322 3.93552 34.9373 3.31163 34.3134C2.05162 33.0534 1.34375 31.3444 1.34375 29.5625V26.875C1.34375 25.0931 2.05162 23.3841 3.31163 22.1241C4.57164 20.8641 6.28058 20.1562 8.0625 20.1562H9.71531C10.3498 20.1668 10.9547 20.4263 11.3996 20.8788C11.8445 21.3312 12.0938 21.9404 12.0938 22.575V33.8625C12.0938 34.4971 11.8445 35.1063 11.3996 35.5587C10.9547 36.0112 10.3498 36.2707 9.71531 36.2812ZM8.0625 22.8438C6.99335 22.8438 5.96798 23.2685 5.21198 24.0245C4.45597 24.7805 4.03125 25.8058 4.03125 26.875V29.5625C4.03125 30.6317 4.45597 31.657 5.21198 32.413C5.96798 33.169 6.99335 33.5937 8.0625 33.5938H9.40625V22.8438H8.0625Z" fill="currentColor"></path>
    <path d="M34.9375 36.2812H33.325C32.6835 36.2812 32.0683 36.0264 31.6147 35.5728C31.1611 35.1192 30.9062 34.504 30.9062 33.8625V22.575C30.9062 21.9335 31.1611 21.3183 31.6147 20.8647C32.0683 20.4111 32.6835 20.1562 33.325 20.1562H34.9375C36.7194 20.1563 38.4284 20.8641 39.6884 22.1241C40.9484 23.3841 41.6562 25.0931 41.6562 26.875V29.5625C41.6562 31.3444 40.9484 33.0534 39.6884 34.3134C38.4284 35.5734 36.7194 36.2812 34.9375 36.2812ZM33.5938 33.5938H34.9375C36.0067 33.5937 37.032 33.169 37.788 32.413C38.544 31.657 38.9687 30.6317 38.9688 29.5625V26.875C38.9687 25.8058 38.544 24.7805 37.788 24.0245C37.032 23.2685 36.0067 22.8438 34.9375 22.8438H33.5938V33.5938Z" fill="currentColor"></path>
    <path d="M8.0625 21.5H9.71531C10.0004 21.5 10.2739 21.6133 10.4755 21.8149C10.6771 22.0165 10.7903 22.2899 10.7903 22.575V33.8625C10.7903 34.1476 10.6771 34.421 10.4755 34.6226C10.2739 34.8242 10.0004 34.9375 9.71531 34.9375H8.0625C6.63696 34.9375 5.26981 34.3712 4.2618 33.3632C3.25379 32.3552 2.6875 30.988 2.6875 29.5625V26.875C2.6875 25.4495 3.25379 24.0823 4.2618 23.0743C5.26981 22.0663 6.63696 21.5 8.0625 21.5Z" fill="currentColor"></path>
    <path d="M34.9375 34.9375H33.325C33.0399 34.9375 32.7665 34.8242 32.5649 34.6226C32.3633 34.421 32.25 34.1476 32.25 33.8625V22.575C32.25 22.2899 32.3633 22.0165 32.5649 21.8149C32.7665 21.6133 33.0399 21.5 33.325 21.5H34.9375C36.363 21.5 37.7302 22.0663 38.7382 23.0743C39.7462 24.0823 40.3125 25.4495 40.3125 26.875V29.5625C40.3125 30.988 39.7462 32.3552 38.7382 33.3632C37.7302 34.3712 36.363 34.9375 34.9375 34.9375Z" fill="currentColor"></path>
    <path d="M32.1022 41.6562H22.8438C22.4874 41.6562 22.1456 41.5147 21.8936 41.2627C21.6416 41.0107 21.5 40.6689 21.5 40.3125C21.5 39.9561 21.6416 39.6143 21.8936 39.3623C22.1456 39.1103 22.4874 38.9688 22.8438 38.9688H32.25C32.6064 38.9688 32.9482 38.8272 33.2002 38.5752C33.4522 38.3232 33.5938 37.9814 33.5938 37.625V34.9375H36.2813V37.625C36.2837 38.2841 36.1246 38.9338 35.8177 39.5171C35.5108 40.1005 35.0655 40.5996 34.5209 40.9709C33.8034 41.4406 32.9595 41.6797 32.1022 41.6562Z" fill="currentColor"></path>
  </symbol>
  <symbol xmlns="http://www.w3.org/2000/svg" viewBox="0 0 24 24" id="handshake-icon">
    <path d="M11.329 19.6c-.185.252-.47.385-.759.385-.194 0-.389-.06-.558-.183-.419-.309-.509-.896-.202-1.315l1.077-1.456c.308-.417.896-.508 1.315-.199.421.306.511.895.201 1.313l-1.074 1.455zm-.825-2.839c.308-.418.217-1.007-.201-1.316-.421-.308-1.008-.216-1.317.203l-1.073 1.449c-.309.419-.217 1.009.202 1.317.417.307 1.007.218 1.315-.202l1.074-1.451zm-1.9-1.388c.309-.417.217-1.007-.203-1.315-.418-.307-1.007-.216-1.314.202l-1.083 1.461c-.308.419-.209.995.209 1.304.421.308 1 .229 1.308-.19l1.083-1.462zm-1.898-1.386c.308-.419.219-1.007-.203-1.315-.419-.309-1.007-.218-1.315.201l-1.075 1.451c-.308.418-.217 1.008.202 1.315.419.307 1.008.218 1.315-.202l1.076-1.45zm17.294-8.438s-1.555.301-2.667.479c-2.146.344-4.144-.416-6.361-1.562-.445-.229-.957-.466-1.458-.466-.461 0-.913.209-1.292.639-1.366 1.547-2.16 2.915-3.785 3.864-.801.468.14 1.934 1.86 1.331.878-.308 1.736-.895 2.706-1.677.762-.615 1.22-.524 1.879.135 1.238 1.238 5.404 5.351 5.404 5.351 1.317-.812 2.422-1.312 3.713-1.792v-6.302zm-10.524 12.662c-.158.459-.618 1.001-.953 1.455.297.235.608.334.882.334.717 0 1.188-.671.542-1.318l-.471-.471zm6.506-3.463c-1.07-1.055-4.732-4.667-5.803-5.713-.165-.161-.421-.18-.608-.044-.639.464-2.082 1.485-2.944 1.788-1.685.59-3.115-.222-3.422-1.359-.192-.712.093-1.411.727-1.781 1.008-.589 1.657-1.375 2.456-2.363-.695-.539-1.35-.732-1.991-.732-1.706 0-3.317 1.366-5.336 1.231-1.373-.09-3.061-.403-3.061-.403v6.333c1.476.321 2.455.464 3.92 1.199l.462-.624c.364-.496.949-.792 1.564-.792.87 0 1.622.578 1.861 1.388.951 0 1.667.602 1.898 1.387.826-.031 1.641.519 1.897 1.385 1.171 0 2.017.92 1.981 2.007l1.168 1.168c.367.368.963.367 1.331 0 .368-.368.368-.964 0-1.332l-1.686-1.687c-.22-.22.113-.553.333-.333l2.032 2.033c.368.368.963.368 1.331 0s.368-.963 0-1.331l-2.501-2.502c-.221-.218.113-.553.333-.333l2.7 2.701c.368.368.963.368 1.331 0 .358-.356.361-.922.027-1.291z" fill="currentColor"></path>
  </symbol>
  <symbol fill="none" xmlns="http://www.w3.org/2000/svg" preserveAspectRatio="none" viewBox="0 0 1045 464" id="process-bg">
    <path d="M389.186 267.457C393.379 261.231 397.316 255.371 402.337 247.921C402.339 247.917 402.342 247.912 402.345 247.908C403.062 246.844 403.802 245.748 404.569 244.612C410.841 235.536 418.486 223.342 432.506 206.27C446.434 189.356 461.481 178.261 472.633 173.047C473.934 172.417 475.151 171.852 476.284 171.342C478.316 170.45 480.322 169.458 485.723 167.244C489.167 165.869 494.033 163.955 501.267 162.032C505.112 161.024 509.649 160.028 515.034 159.333C533.03 156.075 561.116 161.922 584.685 168.79C599.183 172.697 612.899 175.268 623.486 175.968C638.85 177.105 653.874 175.816 669.73 172.019C674.881 170.781 680.044 169.304 685.561 167.461C695.425 164.153 705.485 159.982 715.852 154.077C728.206 147.029 739.256 138.725 749.3 128.781C750.585 127.51 751.846 126.22 753.083 124.916C761.67 115.876 769.483 105.583 777.325 94.022C791.289 73.3873 801.583 55.851 817.532 39.9331C823.755 33.7525 830.839 27.8934 839.266 22.6421C851.564 14.7655 870.73 7.11567 891.447 3.49996C893.045 3.20784 894.634 2.93496 896.213 2.68125C898.114 2.37588 899.924 2.10774 901.868 1.84624C901.878 1.84493 901.888 1.84364 901.897 1.84232C922.26 -0.995684 942.719 -0.24683 957.307 2.00541C980.643 5.79127 988.864 9.6187 995.857 12.0149C998.504 13.0187 1000.85 13.9644 1003.69 15.2178C1013.84 19.6655 1028.69 27.8051 1041.5 39.1518C1041.56 39.1989 1041.61 39.2457 1041.66 39.2921C1043.8 41.1937 1045.21 43.1647 1044.85 43.4485C1044.54 43.762 1042.64 42.3384 1040.54 40.4727C1033.89 34.5619 1026.63 29.5187 1020.02 25.5365C1019.47 25.6588 1017.51 24.8176 1015.35 23.6031C1009.87 20.7071 992.794 10.8107 963.236 5.61465C965.236 6.06067 966.931 6.4824 968.368 6.86272C970.047 7.30802 971.364 7.68705 972.484 8.01826C974.82 8.7152 976.294 9.17742 979.063 10.0249C985.384 11.8845 995.235 15.2279 1005.07 19.9651C1007.58 21.1659 1009.33 22.4961 1009.14 22.8986C1008.9 23.2805 1006.81 22.5997 1004.32 21.4127C1004.27 21.3894 1004.22 21.3662 1004.18 21.3429C994.545 16.7079 984.459 13.2754 977.914 11.385C976.214 10.8869 974.808 10.4964 973.724 10.2003C972.86 9.96404 971.77 9.67614 971.162 9.50477C971.082 9.48193 970.928 9.43808 970.745 9.38378C970.742 9.38277 970.739 9.38178 970.736 9.38078C970.638 9.35144 970.096 9.19286 969.567 9.00463C969.459 8.96621 969.223 8.88201 968.952 8.77169C968.88 8.75175 968.808 8.73182 968.735 8.71195C967.729 8.43509 966.692 8.15938 965.555 7.87628C961.145 6.85228 954.063 4.96163 939.084 3.83458C928.479 3.09794 912.09 3.09509 892.043 6.74932C885.838 7.8787 879.639 9.292 873.149 11.2236C875.015 10.7022 876.926 10.203 878.88 9.72811C883.341 8.64696 887.471 7.80988 892.093 7.02093C892.614 6.93262 893.134 6.84636 893.652 6.7622C895.568 6.45128 897.439 6.17243 899.329 5.91528C902.343 5.50467 905.545 5.13593 908.579 4.85723C910.621 4.66869 912.805 4.49828 914.879 4.37119C914.884 4.37084 914.888 4.3705 914.893 4.37013C917.76 4.19375 920.733 4.07345 923.661 4.02388C924.687 4.00718 925.686 3.99863 926.688 3.99733C930.781 3.99464 934.646 4.09896 939.215 4.43003C939.763 4.47465 940.356 4.52948 940.797 4.57376C941.271 4.62094 941.723 4.66902 942.154 4.71737C942.544 4.76079 942.914 4.80443 943.269 4.84669C943.316 4.85234 943.364 4.858 943.411 4.8637C943.808 4.91127 944.185 4.95744 944.548 5.0025C944.909 5.04746 945.256 5.09181 945.597 5.13456C945.601 5.13485 945.604 5.13512 945.607 5.1354C945.963 5.17988 946.233 5.21421 946.609 5.26052C947.081 5.31884 947.486 5.36893 947.974 5.42894C948.447 5.48706 948.937 5.54789 949.431 5.6099C949.939 5.67338 950.459 5.73937 950.982 5.80741C951.505 5.87559 952.036 5.9464 952.568 6.01921C953.099 6.09196 953.636 6.16712 954.173 6.2449C954.71 6.3227 955.251 6.40355 955.792 6.48672C957.025 6.67611 958.268 6.96361 959.122 7.26011C959.985 7.55786 960.439 7.84344 960.397 8.04864C960.355 8.25429 959.822 8.36461 958.907 8.36645C958 8.36946 956.734 8.25868 955.512 8.08982C955.175 8.0431 954.836 7.99726 954.494 7.95176C954.291 7.9248 954.086 7.89753 953.882 7.87097C953.331 7.79956 952.773 7.73005 952.209 7.66145C951.645 7.59296 951.073 7.5254 950.493 7.45918C949.913 7.39304 949.308 7.32636 948.733 7.26434C948.15 7.20151 947.552 7.13851 946.941 7.07542C946.346 7.01394 945.663 6.94441 945.05 6.88265C944.602 6.83759 944.048 6.78096 943.584 6.73485C943.1 6.6866 942.622 6.63951 942.159 6.59474C941.7 6.55017 941.272 6.50873 940.853 6.47001C940.809 6.46598 940.764 6.46191 940.72 6.4579C940.351 6.42404 939.994 6.39228 939.655 6.36382C939.277 6.33197 938.918 6.30399 938.576 6.27918C938.199 6.25175 937.969 6.23769 937.687 6.22116C933.9 6.02448 929.361 5.96525 924.947 6.07786C924.4 6.09136 923.854 6.107 923.312 6.12488C920.427 6.22087 917.518 6.3846 914.674 6.60583C912.603 6.76617 910.423 6.97053 908.395 7.19157C905.381 7.51814 902.162 7.9408 899.187 8.39694C897.3 8.68541 895.43 8.99567 893.512 9.33941C893.192 9.39676 892.872 9.45494 892.551 9.51392C887.715 10.4078 883.471 11.3398 878.739 12.5788C873.919 13.8448 869.048 15.3586 864.413 17.0638C859.661 18.8101 854.982 20.8115 850.444 23.0741C847.226 24.6695 843.797 26.5451 840.872 28.3092C839.275 29.2694 837.683 30.2815 836.187 31.2797C836.181 31.2831 836.176 31.2864 836.171 31.2898C834.849 32.1718 833.589 33.0489 832.304 33.9863C829.578 35.9739 827.037 38.0078 824.535 40.1935C822.068 42.3477 819.666 44.6345 817.366 47.0032C815.074 49.3626 812.829 51.8602 810.689 54.4042C808.534 56.9662 806.501 59.5439 804.425 62.3176C801.7 65.9628 799.104 69.6829 796.504 73.5499C793.919 77.3956 791.378 81.3227 788.835 85.2788C787.947 86.6603 787.056 88.0485 786.16 89.4418C786.157 89.4472 786.153 89.4525 786.15 89.4579C784.501 92.0253 782.836 94.6089 781.151 97.1835C778.551 101.155 775.897 105.116 773.116 109.053C770.354 112.964 767.461 116.859 764.405 120.672C761.36 124.471 758.067 128.29 754.589 131.935C751.46 135.216 748.195 138.361 744.872 141.294C743.998 142.066 743.111 142.832 742.209 143.592C737.945 147.189 733.581 150.469 729.24 153.425C724.769 156.467 720.317 159.189 715.574 161.798C710.936 164.348 706.042 166.754 701.037 168.943C696.574 170.89 692.48 172.509 687.838 174.163C687.107 174.423 686.378 174.678 685.651 174.928C680.472 176.711 675.123 178.325 669.828 179.664C666.721 180.449 663.561 181.149 660.491 181.733C657.294 182.339 654.351 182.808 651.183 183.213C649.918 183.375 648.671 183.517 647.444 183.643C645.68 183.825 643.839 183.98 642.064 184.098C639.087 184.297 636.161 184.405 633.313 184.437C630.524 184.469 627.692 184.424 625.061 184.327C622.354 184.227 620 184.089 617.332 183.89C610.711 183.319 606.682 182.648 602.221 181.854C601.337 181.694 600.439 181.525 599.509 181.345C594.185 180.304 588.917 179.055 583.796 177.753C578.624 176.439 573.571 175.066 568.5 173.748C563.465 172.439 558.439 171.193 553.419 170.16C548.414 169.13 543.411 168.314 538.395 167.831C533.351 167.342 528.288 167.198 523.342 167.441C520.565 167.572 517.473 167.859 514.754 168.233C512.757 168.505 510.745 168.846 508.863 169.219C508.083 169.373 507.303 169.537 506.525 169.711C503.797 170.322 501.376 170.967 498.843 171.739C496.398 172.487 494.104 173.279 491.756 174.178C489.501 175.043 487.34 175.953 485.098 176.978C482.811 178.029 481.057 178.892 478.659 180.153C478.057 180.47 477.458 180.791 476.858 181.117C475.963 181.606 475.084 182.106 474.215 182.62C472.09 183.877 470.036 185.213 468.012 186.643C465.989 188.073 464.058 189.554 462.147 191.125C461.537 191.627 460.9 192.163 460.297 192.682C458.434 194.285 456.642 195.934 454.899 197.633C453.148 199.34 451.483 201.061 449.845 202.839C448.195 204.632 446.644 206.403 445.068 208.281C442.417 211.444 439.926 214.556 437.791 217.314C435.623 220.114 433.649 222.763 431.754 225.378C431.4 225.867 431.047 226.357 430.695 226.849C429.173 228.973 427.704 231.075 426.269 233.167C424.494 235.756 422.798 238.294 421.094 240.887C419.416 243.44 417.728 246.055 416.086 248.629C414.425 251.231 412.846 253.734 411.147 256.438C409.467 259.113 407.769 261.845 405.894 264.837C404.034 267.805 402.069 270.915 400.034 274.054C398.006 277.183 395.9 280.355 393.748 283.48C391.597 286.605 389.369 289.728 387.114 292.746C384.829 295.805 382.503 298.779 380.081 301.707C377.684 304.606 375.089 307.568 372.564 310.257C368.493 314.596 364.15 318.768 359.517 322.615C354.887 326.459 349.951 329.992 344.683 333.067C342.22 334.505 339.696 335.838 337.096 337.06C334.132 338.453 331.207 339.694 328.306 340.797C322.586 342.973 316.831 344.667 310.987 345.883C309.66 346.159 308.34 346.408 307.029 346.631C302.477 347.407 297.735 347.903 293.085 348.093C293.053 348.094 293.021 348.095 292.989 348.097C287.013 348.338 281.144 348.106 275.274 347.502C273.143 347.282 271.071 347.02 268.998 346.718C266.925 346.416 264.905 346.082 262.864 345.71C260.823 345.339 258.836 344.944 256.851 344.525C254.852 344.103 252.946 343.676 251.001 343.224C249.219 342.81 247.466 342.39 245.571 341.924C245.399 341.882 245.224 341.838 245.049 341.795C242.951 341.276 240.607 340.676 238.436 340.104C232.667 338.584 227.145 337.106 221.542 335.825C215.925 334.544 210.418 333.505 204.862 332.968C202.721 332.761 200.535 332.631 198.403 332.6C195.068 332.55 191.767 332.737 188.514 333.21C183.195 333.973 177.941 335.563 173.073 337.876C168.159 340.2 163.533 343.253 159.161 346.847C154.844 350.389 150.719 354.531 146.99 358.793C142.736 363.657 138.882 368.761 135.221 374.095C133.682 376.337 132.131 378.695 130.568 381.171C128.439 384.544 126.322 387.778 124.219 390.874C120.321 396.619 116.386 402.041 112.221 407.351C107.999 412.733 103.551 417.965 98.9631 422.85C96.0479 425.953 93.3453 428.66 90.2242 431.578C88.6437 433.134 87.2689 434.445 85.6947 435.882C74.6057 445.807 65.5684 452.236 52.0086 457.845C50.683 458.377 49.6954 458.764 48.338 459.256C48.0815 459.349 47.81 459.445 47.5341 459.542C45.7926 460.146 43.8093 460.793 40.9349 461.485C35.2639 462.798 26.0636 464.419 14.3277 461.963C11.4027 461.328 9.70861 460.367 10.4312 460.115C10.8911 459.918 12.5416 460.103 14.3541 460.361C10.9312 459.668 7.54798 458.658 4.33476 457.298C2.97405 456.722 1.87625 456.09 1.04313 455.471C0.828957 455.312 0.741407 455.216 0.550939 455.059C0.37124 454.907 0.267573 454.792 0.205576 454.699C0.190126 454.676 0.177347 454.654 0.166827 454.633C0.14217 454.604 0.0965328 454.563 0.0747798 454.535C0.0254294 454.475 0.00713061 454.434 0.00159166 454.4C-0.00677052 454.334 0.0238949 454.292 0.0582833 454.252C0.293053 454.153 0.935262 454.32 1.99248 454.695C2.90895 455.003 4.2732 455.535 5.48727 456.009C8.86137 457.333 12.3556 458.254 15.86 458.839C19.3716 459.423 22.9218 459.671 26.5039 459.61C29.982 459.554 33.6444 459.172 37.0503 458.545C40.5566 457.902 43.9226 457.015 47.3072 455.874C50.6389 454.749 53.8542 453.421 57.0636 451.873C58.9794 450.948 60.8003 449.992 62.6897 448.923C63.3728 448.536 63.997 448.172 64.648 447.784C65.1766 447.469 65.7101 447.145 66.2616 446.804C71.9772 443.265 77.5281 439.059 82.524 434.716C87.6659 430.246 92.355 425.589 96.9699 420.527C101.428 415.631 105.734 410.409 109.809 405.056C113.854 399.741 117.659 394.335 121.42 388.625C123.401 385.615 125.396 382.477 127.401 379.211C129.007 376.594 130.603 374.101 132.187 371.731C134.963 367.576 137.953 363.428 141.11 359.485C142.356 357.878 143.586 356.362 144.796 354.931C148.48 350.585 152.381 346.514 156.532 342.924C148.87 349.39 143.979 355.295 139.218 361.499C138.63 362.277 138.044 363.066 137.459 363.869C133.894 368.773 130.854 373.395 127.324 379.164C124.71 383.439 122.158 387.444 118.789 392.356C96.9131 424.172 78.4487 438.561 66.6045 445.898C54.4999 453.166 48.4072 454.631 42.9567 455.957C35.1365 458.116 19.6459 458.508 12.193 456.17C9.45917 455.504 7.45849 454.362 7.65381 453.96C7.79796 453.53 9.99095 453.962 12.624 454.6C20.2452 457.032 36.6672 456.42 45.5821 453.563C49.5268 452.383 54.3688 451.374 66.1213 444.282C77.5598 437.116 95.6895 423.08 117.501 391.357C120.832 386.497 123.352 382.541 125.939 378.306C129.298 372.818 132.146 368.452 135.643 363.592C136.228 362.78 136.817 361.978 137.41 361.185C137.414 361.181 137.417 361.176 137.421 361.171C143.203 353.625 149.723 345.465 161.073 337.425C188.549 315.045 234.53 332.956 243.398 334.193C245.34 334.662 247.242 335.109 249.216 335.556C256.852 337.018 266.054 340.161 287.146 340.64C291.727 340.644 297.111 340.374 302.965 339.508C311.712 338.015 319.763 335.406 326.671 332.505C328.976 331.539 331.228 330.49 333.443 329.367C336.681 327.72 339.665 325.917 342.493 323.988C343.846 323.065 345.175 322.104 346.483 321.108C349.639 318.706 352.654 316.111 355.472 313.486C357.737 311.377 359.996 309.097 362.325 306.569C370.771 297.422 379.693 285.323 390.708 268.946C402.374 251.558 412.013 236.169 421.263 223.434C414.479 232.798 409.554 240.174 405.419 246.273C404.641 247.426 403.898 248.528 403.182 249.59C398.128 257.094 394.477 262.512 390.569 268.315C371.874 295.915 363.132 304.592 353.098 313.954C350.402 316.369 347.344 318.92 343.869 321.421C340.582 323.787 336.929 326.1 332.879 328.18C328.203 330.574 323.301 332.695 318.016 334.44C308.609 337.564 297.656 339.662 285.78 339.704C285.775 339.704 285.771 339.704 285.766 339.704C283.434 339.716 281.145 339.66 278.749 339.53C264.32 338.802 249.286 335.152 234.71 331.545C233.14 331.161 231.253 330.706 229.106 330.208C217.091 327.99 192.956 319.796 167.536 332.9C162.215 335.655 156.803 339.349 151.481 344.003C149.744 345.527 148.186 346.98 146.493 348.665C139.692 355.447 132.303 364.509 124.266 377.27C123.718 378.141 123.163 379.016 122.6 379.895C115.359 391.197 105.817 404.829 94.4001 417.296C88.6978 423.524 82.5914 429.4 76.0775 434.605C56.7117 450.299 32.673 459.401 10.8208 452.907C10.8165 452.906 10.8122 452.905 10.8079 452.904C8.26046 452.146 6.54386 450.984 6.82077 450.618C7.04877 450.225 9.13446 450.728 11.571 451.431C32.7356 457.573 56.1161 448.721 75.2067 433.218C81.533 428.149 87.5362 422.382 93.1721 416.228C104.554 403.81 114.181 390.049 121.44 378.686C121.926 377.925 122.406 377.168 122.881 376.413C131.213 363.178 138.933 353.772 146.078 346.776C147.842 345.051 149.645 343.404 151.4 341.911C156.809 337.312 162.1 333.837 167.241 331.22C192.645 318.411 216.268 326.118 228.38 328.361C230.602 328.871 232.55 329.337 234.219 329.743C248.543 333.268 263.237 336.922 277.453 337.806C279.768 337.957 282.055 338.042 284.32 338.059C284.325 338.059 284.33 338.058 284.334 338.058C296.003 338.177 307.084 336.244 316.518 333.206C322.22 331.384 327.343 329.164 332.169 326.685C335.239 325.101 338.072 323.385 340.749 321.572C344.35 319.129 347.65 316.524 350.797 313.785C361.424 304.156 370.492 295.056 389.186 267.457ZM19.7036 461.184C26.7828 462.037 32.6868 461.407 36.9019 460.664C33.3351 461.242 29.5955 461.552 25.9604 461.531C23.853 461.522 21.7443 461.404 19.7036 461.184ZM303.999 340.997C302.954 341.185 301.872 341.362 300.776 341.523C303.821 341.137 306.697 340.645 309.714 339.993C313.249 339.231 316.977 338.212 320.389 337.087C314.818 338.893 309.225 340.189 303.999 340.997ZM392.083 269.818C381.644 285.304 373.516 296.543 365.181 305.895C362.798 308.566 360.368 311.105 357.876 313.49C356.839 314.483 355.793 315.458 354.726 316.42C361.175 311.033 366.535 305.41 370.727 300.655C383.115 286.305 389.048 277.158 394.54 269.388C396.106 267.118 397.598 264.928 399.111 262.685C400.297 260.783 401.523 258.81 402.767 256.816C404.509 254.022 406.393 251.006 408.199 248.14C410.013 245.261 411.866 242.346 413.714 239.492C415.571 236.624 417.448 233.776 419.336 230.98C421.125 228.331 422.918 225.738 424.707 223.221C424.809 223.078 424.911 222.934 425.013 222.791C426.892 220.155 428.78 217.59 430.524 215.278C432.308 212.913 433.825 210.959 435.161 209.242C436.854 207.067 438.604 204.909 440.421 202.78C442.233 200.656 444.078 198.597 445.993 196.578C447.897 194.57 449.864 192.61 451.881 190.727C452.532 190.119 453.225 189.485 453.891 188.891C454.197 188.617 454.504 188.345 454.812 188.075C450.658 191.578 446.603 195.463 442.63 199.693C436.899 205.796 431.233 212.686 425.396 220.544C415.384 233.926 405.15 250.294 392.083 269.818ZM530.671 160.251C528.293 160.218 524.805 160.238 520.371 160.619C519.32 160.71 518.204 160.824 517.026 160.965C517.054 160.962 517.082 160.959 517.11 160.956C520.045 160.663 522.641 160.51 525.57 160.447C530.678 160.343 535.718 160.616 540.689 161.184C545.71 161.757 550.642 162.626 555.53 163.674C560.427 164.725 565.266 165.953 570.048 167.221C574.857 168.497 579.601 169.811 584.353 171.057C585.875 171.456 587.403 171.85 588.921 172.23C585.538 171.331 582.025 170.357 578.287 169.313C575.324 168.486 572.202 167.609 568.923 166.719C567.663 166.377 566.14 165.964 564.36 165.498C557.303 163.744 546.039 160.572 530.671 160.251ZM627.383 178.038C628.51 178.078 629.65 178.106 630.764 178.122C633.84 178.166 637.051 178.112 639.976 177.973C642.055 177.876 644.253 177.724 646.239 177.544C647.094 177.467 647.954 177.381 648.811 177.288C650.236 177.134 651.726 176.95 653.103 176.759C643.199 178.042 633.456 178.338 623.32 177.587C623.185 177.577 623.049 177.567 622.913 177.556C624.468 177.746 625.909 177.903 627.383 178.038Z" fill="#C8A450"></path>
  </symbol>
</svg>